<svg xmlns="http://www.w3.org/2000/svg" viewBox="0 0 512 512" id="Password">
  <defs>
    <linearGradient id="a" x1="67.618" x2="477.723" y1="450.081" y2="39.976" gradientUnits="userSpaceOnUse">
      <stop offset="0" stop-color="#1e6dfa" class="stopColorfaac1e svgShape"></stop>
      <stop offset="1" stop-color="#01399d" class="stopColoreb1b45 svgShape"></stop>
    </linearGradient>
  </defs>
  <path fill="url(#a)" d="M489.534,331.736V306.027a85.3,85.3,0,0,0-8.348-37.89V53.794a25.068,25.068,0,0,0-25.04-25.039H40.153A25.067,25.067,0,0,0,15.114,53.794V305.9L2.9,340.409l.006,0a6.967,6.967,0,0,0-.407,2.333v30.995a27.17,27.17,0,0,0,27.138,27.139H299v55.256a27.142,27.142,0,0,0,27.111,27.111H482.389A27.142,27.142,0,0,0,509.5,456.134V357.885A27.155,27.155,0,0,0,489.534,331.736ZM354.976,291.812h98.55a52.878,52.878,0,0,1,1.459,8.288H353.517A52.878,52.878,0,0,1,354.976,291.812Zm6.35-14c9.565-13.852,26.293-20.287,42.925-20.287s33.36,6.435,42.925,20.287ZM353.233,314.1H455.269v16.673H353.233ZM448.2,258.582c-11.738-9.709-27.346-15.057-43.949-15.057s-32.211,5.348-43.949,15.057c-13.783,11.4-21.069,27.808-21.069,47.445v24.746h-6.265V306.027c0-21.219,7.743-39.065,22.393-51.606,12.927-11.067,30.29-17.161,48.89-17.161s35.963,6.094,48.89,17.162c14.65,12.54,22.393,30.386,22.393,51.6v24.746h-6.265V306.027C469.269,286.39,461.983,269.983,448.2,258.582ZM19.4,335.744,27.062,314.1H318.968v17.636a26.994,26.994,0,0,0-8.472,4.008ZM444.9,232.451a92.491,92.491,0,0,0-40.648-9.191c-21.937,0-42.533,7.29-57.995,20.526a75.775,75.775,0,0,0-22.89,34.026H51.4V65.042H444.9ZM29.114,53.794A11.051,11.051,0,0,1,40.153,42.755H456.146a11.052,11.052,0,0,1,11.04,11.039V248.433c-1.575-1.6-3.206-3.162-4.94-4.646-1.089-.932-2.209-1.827-3.347-2.7V58.042a7,7,0,0,0-7-7H44.4a7,7,0,0,0-7,7v226.77a7,7,0,0,0,7,7H320.015c-.408,2.706-.683,5.473-.851,8.288H29.114Zm.524,333.084A13.154,13.154,0,0,1,16.5,373.739V349.744H300.253A26.984,26.984,0,0,0,299,357.885v28.993ZM495.5,456.134a13.126,13.126,0,0,1-13.111,13.111H326.113A13.126,13.126,0,0,1,313,456.134V357.885a13.127,13.127,0,0,1,13.111-13.112H482.389A13.127,13.127,0,0,1,495.5,357.885ZM477.169,356.1H331.333a7,7,0,0,0-7,7v87.81a7,7,0,0,0,7,7H477.169a7,7,0,0,0,7-7V363.1A7,7,0,0,0,477.169,356.1Zm-7,87.81H338.333V370.1H470.169ZM145.541,219.484H350.759a48.057,48.057,0,0,0,0-96.114H145.541a48.057,48.057,0,0,0,0,96.114Zm0-82.114H350.759a34.057,34.057,0,0,1,0,68.114H145.541a34.057,34.057,0,0,1,0-68.114Zm-25.32,33.366a7,7,0,0,1,7-7h4.139l-2.926-2.927a7,7,0,0,1,9.9-9.9l2.927,2.926V149.7a7,7,0,0,1,14,0v4.139l2.926-2.926a7,7,0,0,1,9.9,9.9l-2.926,2.927H169.3a7,7,0,0,1,0,14h-4.139l2.926,2.926a7,7,0,0,1-9.9,9.9l-2.926-2.927v4.139a7,7,0,0,1-14,0v-4.139l-2.927,2.927a7,7,0,1,1-9.9-9.9l2.926-2.926h-4.139A7,7,0,0,1,120.221,170.736Zm66.106,0a7,7,0,0,1,7-7h4.138l-2.926-2.927a7,7,0,0,1,9.9-9.9l2.927,2.926V149.7a7,7,0,0,1,14,0v4.139l2.927-2.926a7,7,0,0,1,9.9,9.9l-2.927,2.927H235.4a7,7,0,1,1,0,14h-4.138l2.926,2.926a7,7,0,0,1-9.9,9.9l-2.927-2.927v4.139a7,7,0,0,1-14,0v-4.139l-2.927,2.927a7,7,0,1,1-9.9-9.9l2.926-2.926h-4.138A7,7,0,0,1,186.327,170.736Zm66.1,0a7,7,0,0,1,7-7h4.138l-2.926-2.927a7,7,0,0,1,9.9-9.9l2.927,2.926V149.7a7,7,0,0,1,14,0v4.139l2.926-2.926a7,7,0,1,1,9.9,9.9l-2.927,2.927h4.139a7,7,0,0,1,0,14H297.37l2.926,2.926a7,7,0,0,1-9.9,9.9l-2.926-2.927v4.139a7,7,0,0,1-14,0v-4.139l-2.927,2.927a7,7,0,1,1-9.9-9.9l2.926-2.926h-4.138A7,7,0,0,1,252.432,170.736Zm66.1,0a7,7,0,0,1,7-7h4.139l-2.927-2.927a7,7,0,0,1,9.9-9.9l2.927,2.926V149.7a7,7,0,0,1,14,0v4.139l2.926-2.926a7,7,0,1,1,9.9,9.9l-2.927,2.927h4.139a7,7,0,0,1,0,14h-4.138l2.926,2.926a7,7,0,0,1-9.9,9.9l-2.926-2.927v4.139a7,7,0,0,1-14,0v-4.139l-2.927,2.927a7,7,0,1,1-9.9-9.9l2.926-2.926h-4.138A7,7,0,0,1,318.537,170.736Z"></path>
</svg>
